<svg xmlns="http://www.w3.org/2000/svg" width="24.186" height="27.502" viewBox="0 0 24.186 27.502">
  <path id="Icon_awesome-user-graduate" data-name="Icon awesome-user-graduate" d="M16.531,16.592,11.593,21.53,6.656,16.592A6.94,6.94,0,0,0,0,23.517v.5A2.485,2.485,0,0,0,2.484,26.5H20.7a2.485,2.485,0,0,0,2.484-2.484v-.5a6.94,6.94,0,0,0-6.656-6.925ZM.7,4.13l.331.078V7.23A1.2,1.2,0,0,0,.989,9.3L.181,12.524c-.088.357.109.725.393.725H2.738c.285,0,.481-.367.393-.725L2.324,9.3a1.2,1.2,0,0,0-.047-2.07V4.507l3.416.823A6.613,6.613,0,1,0,18.218,8.28a6.507,6.507,0,0,0-.725-2.95l4.984-1.2a.824.824,0,0,0,0-1.63L12.623.119a4.446,4.446,0,0,0-2.055,0L.7,2.494A.827.827,0,0,0,.7,4.13Z" transform="translate(0.5 0.504)" fill="none" stroke="#fff" stroke-width="1"/>
</svg>
